<?xml version="1.0" encoding="utf-8" ?>
<svg baseProfile="full" height="226px" version="1.1" width="820px" xmlns="http://www.w3.org/2000/svg" xmlns:ev="http://www.w3.org/2001/xml-events" xmlns:xlink="http://www.w3.org/1999/xlink"><defs /><rect fill="#ffffff" height="226" width="820" x="0" y="0" /><rect fill="none" height="224" rx="8" ry="8" stroke="#e2e8f0" stroke-width="1" width="818" x="1" y="1" /><rect fill="#f8fafc" height="36" rx="8" ry="8" width="820" x="0" y="0" /><rect fill="#f8fafc" height="16" width="820" x="0" y="20" /><line stroke="#e2e8f0" stroke-width="1" x1="0" x2="820" y1="36" y2="36" /><text fill="#0f172a" font-family="system-ui, -apple-system, Arial, sans-serif" font-size="13px" font-weight="700" x="20" y="24">Domain Architecture</text><text fill="#94a3b8" font-family="ui-monospace, 'SF Mono', Consolas, monospace" font-size="11px" text-anchor="end" x="800" y="24">681 aa</text><rect fill="#e2e8f0" height="36" rx="5" ry="5" stroke="#cbd5e1" stroke-width="1.5" width="720" x="50" y="90" /><line stroke="#94a3b8" stroke-width="1" x1="260.3964757709251" x2="260.3964757709251" y1="126" y2="133" /><text fill="#64748b" font-family="ui-monospace, 'SF Mono', Consolas, monospace" font-size="9px" text-anchor="middle" x="260.3964757709251" y="145">200</text><line stroke="#94a3b8" stroke-width="1" x1="471.85022026431716" x2="471.85022026431716" y1="126" y2="133" /><text fill="#64748b" font-family="ui-monospace, 'SF Mono', Consolas, monospace" font-size="9px" text-anchor="middle" x="471.85022026431716" y="145">400</text><line stroke="#94a3b8" stroke-width="1" x1="683.3039647577092" x2="683.3039647577092" y1="126" y2="133" /><text fill="#64748b" font-family="ui-monospace, 'SF Mono', Consolas, monospace" font-size="9px" text-anchor="middle" x="683.3039647577092" y="145">600</text><line stroke="#94a3b8" stroke-width="1" x1="768.9427312775331" x2="768.9427312775331" y1="126" y2="133" /><text fill="#64748b" font-family="ui-monospace, 'SF Mono', Consolas, monospace" font-size="9px" text-anchor="middle" x="768.9427312775331" y="145">681</text><text fill="#64748b" font-family="ui-monospace, 'SF Mono', Consolas, monospace" font-size="9px" text-anchor="middle" x="50" y="145">1</text><line stroke="#e2e8f0" stroke-width="1" x1="0" x2="820" y1="158" y2="158" /><text fill="#94a3b8" font-family="system-ui, -apple-system, Arial, sans-serif" font-size="11px" text-anchor="middle" x="410" y="180">No annotated features found — run HMMER and Phobius for domain and topology data.</text></svg>